<?xml version="1.0" standalone="no"?>
<!DOCTYPE svg PUBLIC "-//W3C//DTD SVG 20010904//EN"
 "http://www.w3.org/TR/2001/REC-SVG-20010904/DTD/svg10.dtd">
<svg version="1.0" xmlns="http://www.w3.org/2000/svg"
 width="20.000000pt" height="20.000000pt" viewBox="0 0 48.000000 48.000000"
 preserveAspectRatio="xMidYMid meet">

<g transform="translate(0.000000,48.000000) scale(0.100000,-0.100000)"
fill="#000000" stroke="none">
<path d="M72 408 c-17 -17 -17 -319 0 -336 17 -17 319 -17 336 0 8 8 12 54 12
143 l0 131 -38 37 -38 37 -130 0 c-88 0 -134 -4 -142 -12z m281 -56 c26 -27
27 -32 27 -140 l0 -112 -140 0 -140 0 0 140 0 140 113 0 c111 0 114 -1 140
-28z"/>
<path d="M140 310 l0 -30 80 0 80 0 0 30 0 30 -80 0 -80 0 0 -30z"/>
<path d="M196 224 c-31 -30 -9 -84 34 -84 24 0 50 26 50 50 0 24 -26 50 -50
50 -10 0 -26 -7 -34 -16z"/>
</g>
</svg>
